<svg xmlns="http://www.w3.org/2000/svg" xmlns:xlink="http://www.w3.org/1999/xlink" width="1080" zoomAndPan="magnify" viewBox="0 0 810 809.999993" height="1080" preserveAspectRatio="xMidYMid meet" version="1.0"><defs><g/><clipPath id="836e61b460"><path d="M 117.230469 53.480469 L 692.769531 53.480469 L 692.769531 629.019531 L 117.230469 629.019531 Z M 117.230469 53.480469 " clip-rule="nonzero"/></clipPath></defs><g clip-path="url(#836e61b460)"><path fill="#424e47" d="M 117.230469 53.480469 L 692.769531 53.480469 L 692.769531 629.019531 L 117.230469 629.019531 Z M 117.230469 53.480469 " fill-opacity="1" fill-rule="nonzero"/></g><g fill="#f2f0ea" fill-opacity="1"><g transform="translate(186.991111, 610.566719)"><g><path d="M 27.28125 -545.640625 L 310.46875 -545.640625 C 324.289062 -545.640625 337.476562 -543.726562 350.03125 -539.90625 C 362.582031 -536.09375 372.765625 -529.816406 380.578125 -521.078125 C 388.398438 -512.347656 392.3125 -500.53125 392.3125 -485.625 C 392.3125 -467.4375 387.582031 -452.15625 378.125 -439.78125 C 368.664062 -427.414062 356.570312 -417.050781 341.84375 -408.6875 C 327.113281 -400.320312 311.378906 -393.410156 294.640625 -387.953125 C 277.910156 -382.492188 262.175781 -377.671875 247.4375 -373.484375 C 232.707031 -369.304688 220.613281 -365.125 211.15625 -360.9375 C 201.695312 -356.757812 196.96875 -351.941406 196.96875 -346.484375 C 196.96875 -337.753906 201.0625 -330.476562 209.25 -324.65625 C 217.4375 -318.832031 228.347656 -313.554688 241.984375 -308.828125 C 255.628906 -304.097656 270.546875 -299.097656 286.734375 -293.828125 C 302.921875 -288.554688 319.109375 -282.007812 335.296875 -274.1875 C 351.484375 -266.363281 366.394531 -256.539062 380.03125 -244.71875 C 393.675781 -232.894531 404.585938 -218.070312 412.765625 -200.25 C 420.953125 -182.425781 425.046875 -160.78125 425.046875 -135.3125 C 425.046875 -115.675781 420.953125 -97.582031 412.765625 -81.03125 C 404.585938 -64.476562 393.492188 -50.195312 379.484375 -38.1875 C 365.484375 -26.1875 349.476562 -16.820312 331.46875 -10.09375 C 313.46875 -3.363281 294.644531 0 275 0 L 27.28125 0 Z M 106.40625 -76.390625 L 306.109375 -76.390625 C 327.203125 -76.390625 346.113281 -78.390625 362.84375 -82.390625 C 379.582031 -86.390625 392.769531 -93.117188 402.40625 -102.578125 C 412.050781 -112.035156 416.875 -124.585938 416.875 -140.234375 C 416.875 -155.503906 411.867188 -167.867188 401.859375 -177.328125 C 391.859375 -186.785156 378.671875 -194.242188 362.296875 -199.703125 C 345.929688 -205.160156 327.925781 -209.796875 308.28125 -213.609375 C 288.644531 -217.429688 268.910156 -221.429688 249.078125 -225.609375 C 229.253906 -229.796875 211.15625 -234.984375 194.78125 -241.171875 C 178.414062 -247.359375 165.234375 -255.539062 155.234375 -265.71875 C 145.234375 -275.90625 140.234375 -289.367188 140.234375 -306.109375 C 140.234375 -317.742188 144.320312 -327.472656 152.5 -335.296875 C 160.6875 -343.117188 171.328125 -350.03125 184.421875 -356.03125 C 197.515625 -362.03125 211.242188 -368.117188 225.609375 -374.296875 C 239.984375 -380.484375 253.71875 -387.757812 266.8125 -396.125 C 279.914062 -404.5 290.554688 -415.050781 298.734375 -427.78125 C 306.921875 -440.507812 311.015625 -456.332031 311.015625 -475.25 C 311.015625 -492.34375 306.191406 -505.347656 296.546875 -514.265625 C 286.910156 -523.179688 273.816406 -529.273438 257.265625 -532.546875 C 240.710938 -535.816406 222.253906 -537.453125 201.890625 -537.453125 L 106.40625 -537.453125 Z M 106.40625 -76.390625 "/></g></g></g></svg>