<svg xmlns="http://www.w3.org/2000/svg" xmlns:xlink="http://www.w3.org/1999/xlink" width="613" zoomAndPan="magnify" viewBox="0 0 459.75 207.75" height="277" preserveAspectRatio="xMidYMid meet" version="1.0"><defs><g/><clipPath id="03a21bc844"><path d="M 0.152344 0 L 459.347656 0 L 459.347656 207.5 L 0.152344 207.5 Z M 0.152344 0 " clip-rule="nonzero"/></clipPath></defs><g clip-path="url(#03a21bc844)"></g><g fill="#f5f5f5" fill-opacity="1"><g transform="translate(37.851157, 142.855473)"><g><path d="M 4.765625 -95.4375 L 54.296875 -95.4375 C 56.722656 -95.4375 59.03125 -95.101562 61.21875 -94.4375 C 63.414062 -93.769531 65.195312 -92.671875 66.5625 -91.140625 C 67.9375 -89.617188 68.625 -87.550781 68.625 -84.9375 C 68.625 -81.757812 67.796875 -79.085938 66.140625 -76.921875 C 64.484375 -74.753906 62.363281 -72.9375 59.78125 -71.46875 C 57.207031 -70.007812 54.457031 -68.800781 51.53125 -67.84375 C 48.601562 -66.894531 45.851562 -66.054688 43.28125 -65.328125 C 40.707031 -64.597656 38.59375 -63.863281 36.9375 -63.125 C 35.28125 -62.394531 34.453125 -61.554688 34.453125 -60.609375 C 34.453125 -59.078125 35.164062 -57.800781 36.59375 -56.78125 C 38.03125 -55.769531 39.941406 -54.847656 42.328125 -54.015625 C 44.710938 -53.191406 47.320312 -52.316406 50.15625 -51.390625 C 52.988281 -50.472656 55.816406 -49.328125 58.640625 -47.953125 C 61.472656 -46.585938 64.082031 -44.867188 66.46875 -42.796875 C 68.851562 -40.734375 70.757812 -38.140625 72.1875 -35.015625 C 73.625 -31.898438 74.34375 -28.117188 74.34375 -23.671875 C 74.34375 -20.234375 73.625 -17.066406 72.1875 -14.171875 C 70.757812 -11.273438 68.820312 -8.773438 66.375 -6.671875 C 63.925781 -4.578125 61.125 -2.941406 57.96875 -1.765625 C 54.820312 -0.585938 51.53125 0 48.09375 0 L 4.765625 0 Z M 18.609375 -13.359375 L 53.546875 -13.359375 C 57.234375 -13.359375 60.539062 -13.707031 63.46875 -14.40625 C 66.394531 -15.101562 68.703125 -16.28125 70.390625 -17.9375 C 72.078125 -19.59375 72.921875 -21.789062 72.921875 -24.53125 C 72.921875 -27.195312 72.046875 -29.359375 70.296875 -31.015625 C 68.546875 -32.671875 66.238281 -33.972656 63.375 -34.921875 C 60.507812 -35.878906 57.359375 -36.691406 53.921875 -37.359375 C 50.484375 -38.023438 47.03125 -38.722656 43.5625 -39.453125 C 40.09375 -40.191406 36.925781 -41.101562 34.0625 -42.1875 C 31.207031 -43.269531 28.90625 -44.703125 27.15625 -46.484375 C 25.40625 -48.265625 24.53125 -50.617188 24.53125 -53.546875 C 24.53125 -55.578125 25.242188 -57.273438 26.671875 -58.640625 C 28.109375 -60.015625 29.96875 -61.222656 32.25 -62.265625 C 34.539062 -63.316406 36.941406 -64.382812 39.453125 -65.46875 C 41.972656 -66.550781 44.378906 -67.820312 46.671875 -69.28125 C 48.960938 -70.75 50.820312 -72.59375 52.25 -74.8125 C 53.6875 -77.039062 54.40625 -79.8125 54.40625 -83.125 C 54.40625 -86.113281 53.5625 -88.382812 51.875 -89.9375 C 50.1875 -91.5 47.894531 -92.566406 45 -93.140625 C 42.101562 -93.710938 38.875 -94 35.3125 -94 L 18.609375 -94 Z M 18.609375 -13.359375 "/></g></g></g><g fill="#f5f5f5" fill-opacity="1"><g transform="translate(114.102386, 142.855473)"><g><path d="M 41.515625 0.953125 C 33.941406 0.953125 27.320312 -1.082031 21.65625 -5.15625 C 16 -9.226562 11.609375 -14.90625 8.484375 -22.1875 C 5.367188 -29.46875 3.8125 -37.976562 3.8125 -47.71875 C 3.8125 -57.457031 5.367188 -65.96875 8.484375 -73.25 C 11.609375 -80.53125 16 -86.207031 21.65625 -90.28125 C 27.320312 -94.351562 33.941406 -96.390625 41.515625 -96.390625 C 47.179688 -96.390625 52.316406 -95.226562 56.921875 -92.90625 C 61.535156 -90.582031 65.515625 -87.273438 68.859375 -82.984375 C 72.203125 -78.691406 74.765625 -73.566406 76.546875 -67.609375 C 78.328125 -61.660156 79.21875 -55.03125 79.21875 -47.71875 C 79.21875 -40.40625 78.328125 -33.769531 76.546875 -27.8125 C 74.765625 -21.863281 72.203125 -16.742188 68.859375 -12.453125 C 65.515625 -8.160156 61.535156 -4.851562 56.921875 -2.53125 C 52.316406 -0.207031 47.179688 0.953125 41.515625 0.953125 Z M 18.703125 -47.8125 C 18.703125 -38.332031 19.640625 -30.046875 21.515625 -22.953125 C 23.398438 -15.859375 26.054688 -10.335938 29.484375 -6.390625 C 32.921875 -2.453125 36.898438 -0.484375 41.421875 -0.484375 C 46.003906 -0.484375 50.007812 -2.453125 53.4375 -6.390625 C 56.875 -10.335938 59.546875 -15.859375 61.453125 -22.953125 C 63.367188 -30.046875 64.328125 -38.332031 64.328125 -47.8125 C 64.328125 -57.289062 63.367188 -65.5625 61.453125 -72.625 C 59.546875 -79.6875 56.875 -85.191406 53.4375 -89.140625 C 50.007812 -93.085938 46.003906 -95.0625 41.421875 -95.0625 C 36.898438 -95.0625 32.921875 -93.085938 29.484375 -89.140625 C 26.054688 -85.191406 23.398438 -79.6875 21.515625 -72.625 C 19.640625 -65.5625 18.703125 -57.289062 18.703125 -47.8125 Z M 18.703125 -47.8125 "/></g></g></g><g fill="#f5f5f5" fill-opacity="1"><g transform="translate(197.129382, 142.855473)"><g><path d="M 33.21875 0.953125 C 28.882812 0.953125 24.679688 0.429688 20.609375 -0.609375 C 16.535156 -1.660156 12.859375 -3.03125 9.578125 -4.71875 C 6.304688 -6.40625 3.75 -8.171875 1.90625 -10.015625 L 7.640625 -23.28125 C 11.066406 -21.1875 14.398438 -19.296875 17.640625 -17.609375 C 20.890625 -15.921875 24.34375 -14.597656 28 -13.640625 C 31.664062 -12.691406 35.757812 -12.21875 40.28125 -12.21875 C 42.375 -12.21875 44.660156 -12.328125 47.140625 -12.546875 C 49.628906 -12.773438 52.128906 -13.175781 54.640625 -13.75 C 57.148438 -14.320312 59.4375 -15.144531 61.5 -16.21875 C 63.570312 -17.300781 65.226562 -18.671875 66.46875 -20.328125 C 67.707031 -21.984375 68.328125 -24.019531 68.328125 -26.4375 C 68.328125 -28.726562 67.660156 -30.601562 66.328125 -32.0625 C 64.992188 -33.53125 63.195312 -34.722656 60.9375 -35.640625 C 58.675781 -36.566406 56.144531 -37.316406 53.34375 -37.890625 C 50.550781 -38.460938 47.65625 -38.953125 44.65625 -39.359375 C 41.664062 -39.773438 38.773438 -40.207031 35.984375 -40.65625 C 27.960938 -42.050781 21.613281 -43.988281 16.9375 -46.46875 C 12.257812 -48.957031 8.914062 -52.09375 6.90625 -55.875 C 4.90625 -59.664062 3.90625 -64.171875 3.90625 -69.390625 C 3.90625 -72.304688 4.507812 -75.335938 5.71875 -78.484375 C 6.9375 -81.640625 8.925781 -84.566406 11.6875 -87.265625 C 14.457031 -89.972656 18.164062 -92.171875 22.8125 -93.859375 C 27.457031 -95.546875 33.210938 -96.390625 40.078125 -96.390625 C 43.390625 -96.390625 46.875 -96.179688 50.53125 -95.765625 C 54.1875 -95.359375 57.617188 -94.691406 60.828125 -93.765625 C 64.046875 -92.847656 66.644531 -91.59375 68.625 -90 L 64.703125 -75.484375 C 62.859375 -76.828125 60.328125 -78.035156 57.109375 -79.109375 C 53.898438 -80.191406 50.304688 -81.066406 46.328125 -81.734375 C 42.359375 -82.410156 38.335938 -82.75 34.265625 -82.75 C 30.765625 -82.75 27.3125 -82.476562 23.90625 -81.9375 C 20.5 -81.394531 17.410156 -80.550781 14.640625 -79.40625 C 11.878906 -78.257812 9.671875 -76.765625 8.015625 -74.921875 C 6.359375 -73.078125 5.53125 -70.847656 5.53125 -68.234375 C 5.53125 -66.078125 6.148438 -64.328125 7.390625 -62.984375 C 8.628906 -61.648438 10.28125 -60.632812 12.34375 -59.9375 C 14.414062 -59.238281 16.707031 -58.742188 19.21875 -58.453125 C 21.738281 -58.171875 24.269531 -57.976562 26.8125 -57.875 C 29.363281 -57.78125 31.71875 -57.671875 33.875 -57.546875 C 41.070312 -57.035156 47.390625 -55.679688 52.828125 -53.484375 C 58.265625 -51.296875 62.507812 -48.179688 65.5625 -44.140625 C 68.613281 -40.097656 70.140625 -35.085938 70.140625 -29.109375 C 70.140625 -24.460938 69.117188 -20.273438 67.078125 -16.546875 C 65.046875 -12.828125 62.296875 -9.664062 58.828125 -7.0625 C 55.367188 -4.457031 51.425781 -2.46875 47 -1.09375 C 42.582031 0.269531 37.988281 0.953125 33.21875 0.953125 Z M 33.21875 0.953125 "/></g></g></g><g fill="#f5f5f5" fill-opacity="1"><g transform="translate(269.181548, 142.855473)"><g><path d="M 33.21875 0.953125 C 28.882812 0.953125 24.679688 0.429688 20.609375 -0.609375 C 16.535156 -1.660156 12.859375 -3.03125 9.578125 -4.71875 C 6.304688 -6.40625 3.75 -8.171875 1.90625 -10.015625 L 7.640625 -23.28125 C 11.066406 -21.1875 14.398438 -19.296875 17.640625 -17.609375 C 20.890625 -15.921875 24.34375 -14.597656 28 -13.640625 C 31.664062 -12.691406 35.757812 -12.21875 40.28125 -12.21875 C 42.375 -12.21875 44.660156 -12.328125 47.140625 -12.546875 C 49.628906 -12.773438 52.128906 -13.175781 54.640625 -13.75 C 57.148438 -14.320312 59.4375 -15.144531 61.5 -16.21875 C 63.570312 -17.300781 65.226562 -18.671875 66.46875 -20.328125 C 67.707031 -21.984375 68.328125 -24.019531 68.328125 -26.4375 C 68.328125 -28.726562 67.660156 -30.601562 66.328125 -32.0625 C 64.992188 -33.53125 63.195312 -34.722656 60.9375 -35.640625 C 58.675781 -36.566406 56.144531 -37.316406 53.34375 -37.890625 C 50.550781 -38.460938 47.65625 -38.953125 44.65625 -39.359375 C 41.664062 -39.773438 38.773438 -40.207031 35.984375 -40.65625 C 27.960938 -42.050781 21.613281 -43.988281 16.9375 -46.46875 C 12.257812 -48.957031 8.914062 -52.09375 6.90625 -55.875 C 4.90625 -59.664062 3.90625 -64.171875 3.90625 -69.390625 C 3.90625 -72.304688 4.507812 -75.335938 5.71875 -78.484375 C 6.9375 -81.640625 8.925781 -84.566406 11.6875 -87.265625 C 14.457031 -89.972656 18.164062 -92.171875 22.8125 -93.859375 C 27.457031 -95.546875 33.210938 -96.390625 40.078125 -96.390625 C 43.390625 -96.390625 46.875 -96.179688 50.53125 -95.765625 C 54.1875 -95.359375 57.617188 -94.691406 60.828125 -93.765625 C 64.046875 -92.847656 66.644531 -91.59375 68.625 -90 L 64.703125 -75.484375 C 62.859375 -76.828125 60.328125 -78.035156 57.109375 -79.109375 C 53.898438 -80.191406 50.304688 -81.066406 46.328125 -81.734375 C 42.359375 -82.410156 38.335938 -82.75 34.265625 -82.75 C 30.765625 -82.75 27.3125 -82.476562 23.90625 -81.9375 C 20.5 -81.394531 17.410156 -80.550781 14.640625 -79.40625 C 11.878906 -78.257812 9.671875 -76.765625 8.015625 -74.921875 C 6.359375 -73.078125 5.53125 -70.847656 5.53125 -68.234375 C 5.53125 -66.078125 6.148438 -64.328125 7.390625 -62.984375 C 8.628906 -61.648438 10.28125 -60.632812 12.34375 -59.9375 C 14.414062 -59.238281 16.707031 -58.742188 19.21875 -58.453125 C 21.738281 -58.171875 24.269531 -57.976562 26.8125 -57.875 C 29.363281 -57.78125 31.71875 -57.671875 33.875 -57.546875 C 41.070312 -57.035156 47.390625 -55.679688 52.828125 -53.484375 C 58.265625 -51.296875 62.507812 -48.179688 65.5625 -44.140625 C 68.613281 -40.097656 70.140625 -35.085938 70.140625 -29.109375 C 70.140625 -24.460938 69.117188 -20.273438 67.078125 -16.546875 C 65.046875 -12.828125 62.296875 -9.664062 58.828125 -7.0625 C 55.367188 -4.457031 51.425781 -2.46875 47 -1.09375 C 42.582031 0.269531 37.988281 0.953125 33.21875 0.953125 Z M 33.21875 0.953125 "/></g></g></g><g fill="#f5f5f5" fill-opacity="1"><g transform="translate(341.233713, 142.855473)"><g><path d="M 22.71875 0 L 1.90625 0 C 3.882812 -6.488281 5.726562 -12.546875 7.4375 -18.171875 C 9.15625 -23.804688 10.796875 -29.203125 12.359375 -34.359375 C 13.921875 -39.515625 15.476562 -44.664062 17.03125 -49.8125 C 18.59375 -54.96875 20.21875 -60.296875 21.90625 -65.796875 C 23.59375 -71.304688 25.390625 -77.242188 27.296875 -83.609375 C 27.992188 -85.828125 28.882812 -87.90625 29.96875 -89.84375 C 31.050781 -91.789062 32.429688 -93.367188 34.109375 -94.578125 C 35.796875 -95.785156 37.785156 -96.390625 40.078125 -96.390625 C 42.429688 -96.390625 44.4375 -95.785156 46.09375 -94.578125 C 47.75 -93.367188 49.132812 -91.789062 50.25 -89.84375 C 51.363281 -87.90625 52.238281 -85.828125 52.875 -83.609375 C 54.78125 -77.242188 56.578125 -71.304688 58.265625 -65.796875 C 59.953125 -60.296875 61.570312 -54.96875 63.125 -49.8125 C 64.6875 -44.664062 66.257812 -39.515625 67.84375 -34.359375 C 69.4375 -29.203125 71.078125 -23.804688 72.765625 -18.171875 C 74.453125 -12.546875 76.285156 -6.488281 78.265625 0 L 63.65625 0 C 61.6875 -6.613281 59.859375 -12.734375 58.171875 -18.359375 C 56.484375 -23.992188 54.875 -29.421875 53.34375 -34.640625 L 21.46875 -34.640625 C 21.34375 -29.359375 21.3125 -24.363281 21.375 -19.65625 C 21.4375 -14.945312 21.59375 -10.859375 21.84375 -7.390625 C 22.101562 -3.921875 22.394531 -1.457031 22.71875 0 Z M 21.5625 -36.078125 L 52.875 -36.078125 C 51.40625 -41.097656 49.90625 -46.070312 48.375 -51 C 46.851562 -55.9375 45.28125 -61.078125 43.65625 -66.421875 C 42.039062 -71.765625 40.242188 -77.492188 38.265625 -83.609375 C 37.953125 -84.679688 37.507812 -85.535156 36.9375 -86.171875 C 36.363281 -86.816406 35.535156 -87.140625 34.453125 -87.140625 C 32.734375 -87.140625 31.207031 -86.148438 29.875 -84.171875 C 28.539062 -82.203125 27.394531 -79.515625 26.4375 -76.109375 C 25.476562 -72.703125 24.664062 -68.820312 24 -64.46875 C 23.332031 -60.113281 22.804688 -55.5 22.421875 -50.625 C 22.046875 -45.757812 21.757812 -40.910156 21.5625 -36.078125 Z M 21.5625 -36.078125 "/></g></g></g><g fill="#f5f5f5" fill-opacity="1"><g transform="translate(364.8903, 36.718829)"><g><path d="M 4.984375 -0.484375 C 3.222656 -0.265625 1.765625 -0.5625 0.609375 -1.375 L 0.953125 -2.453125 C 1.566406 -2.035156 2.175781 -1.765625 2.78125 -1.640625 C 3.382812 -1.515625 4.078125 -1.5 4.859375 -1.59375 C 5.753906 -1.707031 6.425781 -1.96875 6.875 -2.375 C 7.320312 -2.789062 7.503906 -3.320312 7.421875 -3.96875 C 7.378906 -4.34375 7.222656 -4.632812 6.953125 -4.84375 C 6.691406 -5.050781 6.359375 -5.195312 5.953125 -5.28125 C 5.554688 -5.375 5.03125 -5.457031 4.375 -5.53125 C 3.476562 -5.601562 2.738281 -5.71875 2.15625 -5.875 C 1.570312 -6.03125 1.082031 -6.296875 0.6875 -6.671875 C 0.289062 -7.046875 0.0507812 -7.566406 -0.03125 -8.234375 C -0.113281 -8.878906 -0.0195312 -9.46875 0.25 -10 C 0.519531 -10.53125 0.945312 -10.96875 1.53125 -11.3125 C 2.113281 -11.65625 2.820312 -11.878906 3.65625 -11.984375 C 4.425781 -12.078125 5.160156 -12.046875 5.859375 -11.890625 C 6.566406 -11.734375 7.179688 -11.453125 7.703125 -11.046875 L 7.328125 -10 C 6.742188 -10.382812 6.164062 -10.648438 5.59375 -10.796875 C 5.03125 -10.941406 4.429688 -10.972656 3.796875 -10.890625 C 2.910156 -10.785156 2.242188 -10.515625 1.796875 -10.078125 C 1.359375 -9.640625 1.175781 -9.09375 1.25 -8.4375 C 1.320312 -7.863281 1.585938 -7.460938 2.046875 -7.234375 C 2.515625 -7.003906 3.210938 -6.84375 4.140625 -6.75 C 5.128906 -6.632812 5.910156 -6.507812 6.484375 -6.375 C 7.066406 -6.25 7.566406 -6.015625 7.984375 -5.671875 C 8.398438 -5.328125 8.648438 -4.828125 8.734375 -4.171875 C 8.804688 -3.535156 8.703125 -2.957031 8.421875 -2.4375 C 8.148438 -1.925781 7.71875 -1.5 7.125 -1.15625 C 6.53125 -0.8125 5.816406 -0.585938 4.984375 -0.484375 Z M 4.984375 -0.484375 "/></g></g></g><g fill="#f5f5f5" fill-opacity="1"><g transform="translate(377.979751, 35.522741)"><g><path d="M 4.109375 0.515625 L 5.390625 -9.625 L 1.46875 -10.125 L 1.609375 -11.21875 L 10.75 -10.0625 L 10.609375 -8.96875 L 6.6875 -9.453125 L 5.40625 0.6875 Z M 4.109375 0.515625 "/></g></g></g><g fill="#f5f5f5" fill-opacity="1"><g transform="translate(390.615793, 37.402185)"><g><path d="M 5.34375 2.3125 C 3.96875 1.75 3.070312 0.972656 2.65625 -0.015625 C 2.25 -1.015625 2.332031 -2.210938 2.90625 -3.609375 L 5.515625 -9.984375 L 6.71875 -9.5 L 4.0625 -3.015625 C 3.644531 -1.992188 3.578125 -1.117188 3.859375 -0.390625 C 4.148438 0.335938 4.785156 0.898438 5.765625 1.296875 C 6.734375 1.691406 7.570312 1.726562 8.28125 1.40625 C 8.988281 1.09375 9.550781 0.425781 9.96875 -0.59375 L 12.625 -7.078125 L 13.84375 -6.578125 L 11.234375 -0.203125 C 10.660156 1.179688 9.875 2.082031 8.875 2.5 C 7.875 2.925781 6.695312 2.863281 5.34375 2.3125 Z M 5.34375 2.3125 "/></g></g></g><g fill="#f5f5f5" fill-opacity="1"><g transform="translate(404.063806, 43.367459)"><g><path d="M 8.140625 -7.984375 L 11.125 -5.625 C 12.539062 -4.488281 13.328125 -3.226562 13.484375 -1.84375 C 13.648438 -0.457031 13.171875 0.9375 12.046875 2.34375 C 10.921875 3.757812 9.664062 4.546875 8.28125 4.703125 C 6.894531 4.859375 5.492188 4.367188 4.078125 3.234375 L 1.09375 0.875 Z M 4.703125 2.3125 C 5.835938 3.21875 6.929688 3.601562 7.984375 3.46875 C 9.046875 3.332031 10.046875 2.675781 10.984375 1.5 C 12.867188 -0.875 12.664062 -2.976562 10.375 -4.8125 L 8.46875 -6.3125 L 2.796875 0.8125 Z M 4.703125 2.3125 "/></g></g></g><g fill="#f5f5f5" fill-opacity="1"><g transform="translate(415.460162, 53.444184)"><g><path d="M 0.890625 1.09375 L 9.6875 -6.03125 L 10.5 -5.03125 L 1.703125 2.09375 Z M 0.890625 1.09375 "/></g></g></g><g fill="#f5f5f5" fill-opacity="1"><g transform="translate(420.24625, 59.231084)"><g><path d="M 2.609375 5.5625 C 2.148438 4.625 1.957031 3.703125 2.03125 2.796875 C 2.101562 1.898438 2.4375 1.066406 3.03125 0.296875 C 3.625 -0.460938 4.445312 -1.109375 5.5 -1.640625 C 6.570312 -2.160156 7.585938 -2.425781 8.546875 -2.4375 C 9.503906 -2.445312 10.363281 -2.207031 11.125 -1.71875 C 11.894531 -1.238281 12.515625 -0.523438 12.984375 0.421875 C 13.460938 1.378906 13.660156 2.304688 13.578125 3.203125 C 13.492188 4.097656 13.15625 4.925781 12.5625 5.6875 C 11.976562 6.445312 11.15625 7.085938 10.09375 7.609375 C 9.03125 8.140625 8.015625 8.40625 7.046875 8.40625 C 6.078125 8.414062 5.210938 8.179688 4.453125 7.703125 C 3.691406 7.222656 3.078125 6.507812 2.609375 5.5625 Z M 3.59375 5.0625 C 4.125 6.132812 4.90625 6.785156 5.9375 7.015625 C 6.96875 7.253906 8.148438 7.046875 9.484375 6.390625 C 10.828125 5.722656 11.710938 4.910156 12.140625 3.953125 C 12.578125 3.003906 12.523438 1.988281 11.984375 0.90625 C 11.453125 -0.175781 10.671875 -0.832031 9.640625 -1.0625 C 8.617188 -1.289062 7.441406 -1.078125 6.109375 -0.421875 C 4.773438 0.234375 3.890625 1.039062 3.453125 2 C 3.015625 2.957031 3.0625 3.976562 3.59375 5.0625 Z M 3.59375 5.0625 "/></g></g></g><g fill="#f5f5f5" fill-opacity="1"><g transform="translate(426.426567, 73.558906)"><g/></g></g></svg>