<svg xmlns="http://www.w3.org/2000/svg" xmlns:xlink="http://www.w3.org/1999/xlink" width="501" zoomAndPan="magnify" viewBox="0 0 375.75 470.25" height="627" preserveAspectRatio="xMidYMid meet" version="1.0"><defs><g/><clipPath id="72b922cf5b"><path d="M 66.375 55.335938 L 308.984375 55.335938 L 308.984375 333.808594 L 66.375 333.808594 Z M 66.375 55.335938 " clip-rule="nonzero"/></clipPath></defs><g clip-path="url(#72b922cf5b)"></g><g fill="#f2f0ea" fill-opacity="1"><g transform="translate(93.390844, 311.042709)"><g><path d="M 11.796875 -235.96875 L 134.265625 -235.96875 C 140.242188 -235.96875 145.945312 -235.140625 151.375 -233.484375 C 156.800781 -231.835938 161.203125 -229.125 164.578125 -225.34375 C 167.960938 -221.570312 169.65625 -216.460938 169.65625 -210.015625 C 169.65625 -202.148438 167.609375 -195.539062 163.515625 -190.1875 C 159.429688 -184.84375 154.203125 -180.359375 147.828125 -176.734375 C 141.460938 -173.117188 134.660156 -170.128906 127.421875 -167.765625 C 120.179688 -165.410156 113.375 -163.328125 107 -161.515625 C 100.632812 -159.710938 95.40625 -157.90625 91.3125 -156.09375 C 87.226562 -154.28125 85.1875 -152.195312 85.1875 -149.84375 C 85.1875 -146.0625 86.953125 -142.910156 90.484375 -140.390625 C 94.023438 -137.878906 98.742188 -135.597656 104.640625 -133.546875 C 110.546875 -131.503906 117 -129.34375 124 -127.0625 C 131 -124.78125 138 -121.945312 145 -118.5625 C 152 -115.1875 158.445312 -110.941406 164.34375 -105.828125 C 170.25 -100.710938 174.96875 -94.300781 178.5 -86.59375 C 182.039062 -78.882812 183.8125 -69.523438 183.8125 -58.515625 C 183.8125 -50.023438 182.039062 -42.203125 178.5 -35.046875 C 174.96875 -27.890625 170.171875 -21.710938 164.109375 -16.515625 C 158.054688 -11.328125 151.132812 -7.273438 143.34375 -4.359375 C 135.5625 -1.453125 127.421875 0 118.921875 0 L 11.796875 0 Z M 46.015625 -33.03125 L 132.375 -33.03125 C 141.5 -33.03125 149.679688 -33.894531 156.921875 -35.625 C 164.160156 -37.363281 169.863281 -40.273438 174.03125 -44.359375 C 178.195312 -48.453125 180.28125 -53.878906 180.28125 -60.640625 C 180.28125 -67.242188 178.113281 -72.59375 173.78125 -76.6875 C 169.457031 -80.78125 163.753906 -84.003906 156.671875 -86.359375 C 149.597656 -88.722656 141.8125 -90.726562 133.3125 -92.375 C 124.820312 -94.03125 116.289062 -95.757812 107.71875 -97.5625 C 99.144531 -99.375 91.316406 -101.617188 84.234375 -104.296875 C 77.160156 -106.972656 71.457031 -110.515625 67.125 -114.921875 C 62.800781 -119.328125 60.640625 -125.144531 60.640625 -132.375 C 60.640625 -137.40625 62.410156 -141.613281 65.953125 -145 C 69.492188 -148.382812 74.09375 -151.375 79.75 -153.96875 C 85.414062 -156.5625 91.351562 -159.195312 97.5625 -161.875 C 103.78125 -164.550781 109.722656 -167.695312 115.390625 -171.3125 C 121.054688 -174.925781 125.65625 -179.488281 129.1875 -185 C 132.726562 -190.507812 134.5 -197.351562 134.5 -205.53125 C 134.5 -212.925781 132.414062 -218.550781 128.25 -222.40625 C 124.082031 -226.257812 118.414062 -228.890625 111.25 -230.296875 C 104.09375 -231.710938 96.113281 -232.421875 87.3125 -232.421875 L 46.015625 -232.421875 Z M 46.015625 -33.03125 "/></g></g></g></svg>